<svg xmlns="http://www.w3.org/2000/svg" viewBox="0 0 165 165" height="165" width="165"><g fill="#fff"><path d="M60.24 35.044L55.566 62.76h53.868l-4.676-27.716z"/><circle r="7.16" cy="22.34" cx="138.45"/></g><g fill="none" stroke="#fff" stroke-width="5" stroke-linecap="round" stroke-linejoin="round"><path d="M132.012 101.365l22.583 46.153h7.403v8.587h-22.913v-8.587h5.634l-2.162-4.056-39.155-14.377-16.152 11.06v13.64h8.263v8.217H69.487v-8.217h8.263v-13.64l-16.152-11.06-39.154 14.378-2.162 4.055h5.635v8.587H3.003v-8.587h7.403l22.58-46.153 49.513 7.75zm-9.04 1.953l13.81 28.675-24.964-9.385 7.17-19.029m-10.89 2.346l-5.577 13.555H87.25v-10.69m5.145 18.61l-5.145-.022v2.468zm39.617-26.037l11.046-27.85-7.646-32.433m-16.418-20.768L82.5 3.631l22.438 31.412 6.113 32.825-15.824 37.414m47.83-31.767l-32.006-5.647m-3.956 9.178h-49.19m-15.88 26.272l-13.81 28.675 24.967-9.385-7.173-19.029m10.89 2.346l5.578 13.555H77.75v-10.69m-5.145 18.61l5.145-.022v2.468zm-39.617-26.037L21.943 73.515 33.09 26.217 82.5 3.63 60.06 35.042l-6.113 32.825 15.823 37.414M21.94 73.514l32.006-5.647"/><circle r="19.2" cx="138.45" cy="22.34"/></g></svg>